<?xml version="1.0" encoding="UTF-8"?>
<svg width="250" height="215" xmlns="http://www.w3.org/2000/svg" xmlns:xlink="http://www.w3.org/1999/xlink" version="1.1">
 <defs>
  <circle r="120" cy="100" cx="120" id="path-1"/>
 </defs>
 <g>
  <title>Layer 1</title>
  <g id="svga-group-wrapper">
   <g id="svga-group-backs-single">
    <mask fill="white" id="mask-2">
     <use id="svg_1" xlink:href="#path-1"/>
    </mask>
    <use x="5" y="28" xlink:href="#path-1" fill="#FFD15C" id="Oval"/>
   </g>
   <g id="svga-group-humanwrap-move">
    <g id="svga-group-humanwrap">
     <g transform="matrix(1 -2.85637e-18 2.85637e-18 1 0 0)" id="svga-group-hair-back-move">
      <g id="svga-group-hair-back"/>
     </g>
     <g id="svga-group-humanbody-back">
      <path stroke-width="none" fill="#ffd0bc" d="m195,210.3l-27.3,-6.9l-18,-9.9l-1.5,-28.2l-46.4,0l-1.5,28.2l-18,9.9l-27.3,6.9l-9.1,19.7l-3,20l164.2,0l-3,-20l-9.1,-19.7z" id="SvgjsPath16809"/>
      <path stroke-width="none" fill="#e09879" d="m101.8,165.3l-1.5,28.2l-18,9.9l-27.3,6.9l-9.1,19.7l-3,20l14.6,0l0,-20l2.7,-17.7l23.8,-6.4l24.7,-8.3l3.5,-32.3l-10.4,0zm16,33l2,7.9l6.9,4.6s-8.5,-3 -8.7,-3.6c-0.2,-0.6 -0.2,-8.9 -0.2,-8.9z" id="SvgjsPath16810"/>
     </g>
     <g id="svga-group-chinshadow-single">
      <path stroke-width="none" fill="#d17f5b" d="m146.5,179.1l2.2,-3.8l-0.5,-10l-46.4,0l-0.8,15.9l13.8,9.6l14.8,0l16.9,-11.7z" id="SvgjsPath16805"/>
     </g>
     <g id="svga-group-humanbody-front"/>
     <g id="svga-group-clothes-single">
      <path stroke-width="none" fill="#000000" d="m208.7,250l-3.2,-20.5l-9.6,-20.1l-27.7,-7l-17.6,-9.7l-1,-1.3l0.1,2.1l0.7,2.9l-8.8,10.2l-9.4,4.2l-14.4,0l-9.4,-4.2l-8.8,-10.2l0.7,-2.9l0.1,-2.1l-1,1.3l-17.6,9.7l-27.8,7l-9.5,20.1l-3.2,20.5l167.4,0z" id="SvgjsPath17014"/>
      <path stroke-width="none" fill="#000000" d="m97,194.1l-1.1,3.8l7.9,11.6l13.9,6.6l9,1.2l-8.9,0l-14,-6.5l-8.7,-12.5l1.5,-4l0.4,-0.2zm-42.4,42.9l3.5,-14.5l2.9,0.7l2.5,9.3l-1.6,-9.4l-3.3,-8.9l27.6,-5.8l12,-6.2l4.2,-2.5l-2.8,-3.2l0.7,-2.9l0.1,-2.1l-1,1.3l-17.7,9.7l-27.7,7l-9.6,20.1l-3.1,20.4l13.2,0l0.1,-13zm13.6,8.7l-1.8,-6.5l0.2,10.8l2.1,0l-0.5,-4.3zm84.8,-51.6l1.1,3.8l-7.9,11.6l-13.9,6.6l-9,1.2l8.9,0l14,-6.5l8.7,-12.5l-1.5,-4l-0.4,-0.2zm28.8,51.6l1.8,-6.5l-0.2,10.8l-2.1,0l0.5,-4.3z" id="SvgjsPath17015"/>
     </g>
     <g transform="matrix(1 -2.85637e-18 2.85637e-18 1 0 0)" id="svga-group-head">
      <g id="svga-group-ears-left-move">
       <g id="svga-group-ears-left">
        <path stroke-width="none" fill="#ffd0bc" d="m88.1,121.8s-6,-0.7 -10.6,-3.7c0,0 -3.5,9.4 -4,14.4c0,0 6.7,13 10,18.5c0,0 5.2,-0.7 6.3,-1.4l1.4,-8.4l-3.1,-19.4z" id="SvgjsPath16707"/>
        <path stroke-width="none" fill="#f0b399" d="m78.3,120c-0.2,-0.4 -0.8,-1.9 -0.8,-1.9c5.2,0.4 10.7,1.4 10.7,1.4l3,21.6l-1.4,8.4c-1.1,0.7 -6.3,1.4 -6.3,1.4c-0.6,-1 -1.3,-2.3 -2.1,-3.6l2.6,1l3,-1.6s0.7,-11.2 0.5,-11.5c-0.1,-0.3 -9,-14.8 -9.2,-15.2z" id="SvgjsPath16708"/>
        <path stroke-width="none" fill="#e09879" d="m75.3,130.9l2.8,-5.5l5.2,6.8l2.2,9.5l-1.4,1.9l-4.3,-7.6l1,-4.7l-2.6,-4l-2.9,3.6z" id="SvgjsPath16709"/>
       </g>
      </g>
      <g id="svga-group-ears-right-move">
       <g id="svga-group-ears-right">
        <path stroke-width="none" fill="#ffd0bc" d="m161.9,121.8s6,-0.7 10.6,-3.7c0,0 3.5,9.4 4,14.4c0,0 -6.7,13 -10,18.5c0,0 -5.2,-0.7 -6.3,-1.4l-1.4,-8.4l3.1,-19.4z" id="SvgjsPath16710"/>
        <path stroke-width="none" fill="#f0b399" d="m171.7,120c0.2,-0.4 0.8,-1.9 0.8,-1.9c-5.2,0.4 -10.7,1.4 -10.7,1.4l-3,21.6l1.4,8.4c1.1,0.7 6.3,1.4 6.3,1.4c0.6,-1 1.3,-2.3 2.1,-3.6l-2.6,1l-3,-1.6s-0.7,-11.2 -0.5,-11.5c0.1,-0.3 9,-14.8 9.2,-15.2z" id="SvgjsPath16711"/>
        <path stroke-width="none" fill="#e09879" d="m174.7,130.9l-2.8,-5.5l-5.2,6.8l-2.2,9.5l1.4,1.9l4.3,-7.6l-1,-4.7l2.6,-4l2.9,3.6z" id="SvgjsPath16712"/>
       </g>
      </g>
      <g id="svga-group-faceshape-wrap">
       <g id="svga-group-faceshape-single">
        <path stroke-width="none" fill="#ffd0bc" d="m163.1,90c-6.9,-11.6 -19.7,-19.5 -19.7,-19.5c-7.2,-1.5 -18.4,-2.3 -18.4,-2.3s-11.1,0.8 -18.4,2.3c0,0 -12.8,7.9 -19.7,19.5c0,0 -5.1,14.5 -5.3,24.8l4.9,33.9l14.2,24.8l16.9,11.7l14.9,0l16.9,-11.7l14.2,-24.8l4.9,-33.9c-0.3,-10.3 -5.4,-24.8 -5.4,-24.8z" id="SvgjsPath16791"/>
        <path stroke-width="none" fill="#e09879" d="m117.7,182.7l-14.6,-12.3s-11.4,-20.9 -11.8,-21.7c-0.4,-0.9 -5,-34.3 -5,-34.3c0.2,-4.8 4.5,-21.5 5,-22.2c2.1,-3.2 16.5,-18 16.5,-18l17.1,-4.1l18.5,0.4c-7.2,-1.5 -18.4,-2.3 -18.4,-2.3s-11.1,0.8 -18.4,2.3c0,0 -12.8,7.9 -19.7,19.5c0,0 -5.1,14.5 -5.3,24.8l4.9,33.9l14.2,24.8l16.9,11.7l14.9,0l16.9,-11.7l-18,10.4l-13.7,-1.2z" id="SvgjsPath16792"/>
       </g>
      </g>
      <g id="svga-group-mouth-single-move">
       <g id="svga-group-mouth-single">
        <path stroke-width="none" fill="#da7c87" d="m109.99,157.5l2.75,3.94l12.37,-0.68l12.45,0.84l3.02,-3.87l-3.73,2.46l-6.81,-2.5l-4.93,1.46l-4.57,-1.35l-7.7,1.93l-2.85,-2.23z" id="SvgjsPath16872"/>
        <path stroke-width="none" fill="#e09879" d="m114.12,163.92l1.15,2.64l10.05,2.86l10.83,-3.61l-10.89,2.15l-9.41,-2.31l-1.73,-1.73z" id="SvgjsPath16873"/>
       </g>
      </g>
      <g id="svga-group-eyes-left-move">
       <g id="svga-group-eyes-left">
        <g id="svga-group-eyesback-left">
         <path stroke-width="none" fill="#ffffff" d="m116.2,125.7l-5.2,-4.6l-9,0.1l-7,3.8s5.8,4.3 7.2,4.9l8.8,-0.4l5.2,-3.8z" id="SvgjsPath16747"/>
        </g>
        <g id="svga-group-eyesiriswrapper-left">
         <g id="svga-group-eyesiriscontrol-left">
          <g id="svga-group-eyesiris-left">
           <path stroke-width="none" fill="#02040a" d="m102,127.9l-1.3,-3.8l1.9,-3.7l3.9,-1.2l3.6,1.9l1.2,3.8l-1.8,3.6l-3.9,1.3l-3.6,-1.9z" id="SvgjsPath16824"/>
           <path stroke-width="none" fill="#000000" d="m106.5,119.5l3.4,1.8l1.2,3.7l-1.8,3.4l-3.7,1.2l-3.4,-1.8l-1.2,-3.7l1.8,-3.4l3.7,-1.2m0,-0.6l-4.1,1.3l-2,3.8l1.3,4.1l3.8,2l4.1,-1.3l2,-3.8l-1.3,-4.1l-3.8,-2z" id="SvgjsPath16825"/>
           <path stroke-width="none" fill="#000000" d="m107.2,121.6l-2.4,0.1l-1.6,1.7l0,2.3l1.7,1.6l2.4,0l1.6,-1.7l0,-2.3l-1.7,-1.7z" id="SvgjsPath16826"/>
           <path stroke-width="none" fill="#000000" d="m102.9,121.2l0.9,1.1l-1.2,-0.7l0.3,-0.4zm2.1,-1l0,1.3l-0.6,-1.1l0.6,-0.2zm1.7,-0.2l-0.3,1.3l-0.3,-1.3l0.6,0zm1.7,0.9l-0.7,0.8l0.2,-1.1l0.5,0.3zm1.5,1l-1.3,0.8l1,-1.2l0.3,0.4zm0.6,1.9l-1.4,0.1l1.2,-0.6l0.2,0.5zm0.1,1.5l-1.2,-0.4l1.3,-0.1l-0.1,0.5zm-0.9,1.4l-0.8,-0.7l1.1,0.3l-0.3,0.4zm-0.8,1.5l-0.7,-1.3l1.1,0.9l-0.4,0.4zm-1.8,0.6l-0.1,-1.4l0.6,1.2l-0.5,0.2zm-1.8,0.1l0.5,-1.2l0.1,1.3l-0.6,-0.1zm-2,-1.1l0.9,-0.9l-0.4,1.2l-0.5,-0.3zm-1.3,-1.6l1.1,-0.3l-0.8,0.8l-0.3,-0.5zm-0.4,-1.7l1.3,0.3l-1.3,0.2l0,-0.5zm0.5,-1.9l0.8,0.7l-1.1,-0.2l0.3,-0.5z" id="SvgjsPath16827"/>
           <path stroke-width="none" fill="#ffffff" d="m103,122l2.2,2l0.6,-0.4l-1.3,-2.7l-1.5,1.1z" id="SvgjsPath16828"/>
           <path stroke-width="none" fill="#ffffff" d="m107.1,126.6l0.5,1l0.9,-0.4l-0.5,-1l-0.9,0.4z" id="SvgjsPath16829"/>
          </g>
         </g>
        </g>
        <g id="svga-group-eyesfront-left">
         <path stroke-width="none" fill="#ffd0bc" d="m92.1,119.3l0,11.9l7.9,8.4l11.2,0l7.9,-8.4l0,-11.9l-7.9,-8.4l-11.2,0l-7.9,8.4zm3,5.7l7,-3.8l9,-0.1l5.1,4.6l-5.2,3.9l-8.8,0.4c-1.3,-0.8 -7.1,-5 -7.1,-5z" id="SvgjsPath16755"/>
         <path stroke-width="none" fill="#000000" d="m116.7,126.1l-1.2,-0.6l-4.7,-4.1l-8.8,0l-7.2,4l-1,0.2l7.9,-5l9.6,-0.1l5.4,5.6z" id="SvgjsPath16756"/>
         <path stroke-width="none" fill="#f0b399" d="m115.8,124l-4,-4.1l-9.8,-0.1l-8.1,3.6l8.1,-3.1l9.7,0l4.1,3.7z" id="SvgjsPath16757"/>
        </g>
       </g>
      </g>
      <g id="svga-group-eyes-right-move">
       <g id="svga-group-eyes-right">
        <g id="svga-group-eyesback-right">
         <path stroke-width="none" fill="#ffffff" d="m133.8,125.7l5.1,-4.6l9,0.1l7,3.8s-5.8,4.3 -7.2,4.9l-8.8,-0.4l-5.1,-3.8z" id="SvgjsPath16748"/>
        </g>
        <g id="svga-group-eyesiriswrapper-right">
         <g id="svga-group-eyesiriscontrol-right">
          <g id="svga-group-eyesiris-right">
           <path stroke-width="none" fill="#02040a" d="m139.9,127.9l-1.2,-3.8l1.8,-3.7l3.9,-1.2l3.6,1.9l1.3,3.8l-1.9,3.6l-3.9,1.3l-3.6,-1.9z" id="SvgjsPath16830"/>
           <path stroke-width="none" fill="#000000" d="m144.4,119.5l3.4,1.8l1.2,3.7l-1.8,3.4l-3.7,1.2l-3.4,-1.8l-1.2,-3.7l1.8,-3.4l3.7,-1.2m0,-0.6l-4.1,1.3l-2,3.8l1.3,4.1l3.8,2l4.1,-1.3l2,-3.8l-1.3,-4.1l-3.8,-2z" id="SvgjsPath16831"/>
           <path stroke-width="none" fill="#000000" d="m145.1,121.6l-2.4,0.1l-1.6,1.7l0,2.3l1.7,1.6l2.4,0l1.6,-1.7l0,-2.3l-1.7,-1.7z" id="SvgjsPath16832"/>
           <path stroke-width="none" fill="#000000" d="m140.9,121.2l0.8,1.1l-1.2,-0.7l0.4,-0.4zm2,-1l0,1.3l-0.5,-1.1l0.5,-0.2zm1.7,-0.2l-0.3,1.3l-0.3,-1.3l0.6,0zm1.7,0.9l-0.7,0.8l0.3,-1.1l0.4,0.3zm1.5,1l-1.3,0.8l1,-1.2l0.3,0.4zm0.6,1.9l-1.3,0.1l1.1,-0.6l0.2,0.5zm0.1,1.5l-1.2,-0.4l1.3,-0.1l-0.1,0.5zm-0.9,1.4l-0.8,-0.7l1.1,0.3l-0.3,0.4zm-0.8,1.5l-0.7,-1.3l1.1,0.9l-0.4,0.4zm-1.8,0.6l-0.1,-1.4l0.6,1.2l-0.5,0.2zm-1.8,0.1l0.5,-1.2l0.1,1.3l-0.6,-0.1zm-2,-1.1l0.9,-0.9l-0.4,1.2l-0.5,-0.3zm-1.2,-1.6l1,-0.3l-0.8,0.8l-0.2,-0.5zm-0.5,-1.7l1.3,0.3l-1.3,0.2l0,-0.5zm0.5,-1.9l0.8,0.7l-1,-0.2l0.2,-0.5z" id="SvgjsPath16833"/>
           <path stroke-width="none" fill="#ffffff" d="m140.9,122l2.2,2l0.6,-0.4l-1.3,-2.7l-1.5,1.1z" id="SvgjsPath16834"/>
           <path stroke-width="none" fill="#ffffff" d="m145,126.6l0.5,1l0.9,-0.4l-0.5,-1l-0.9,0.4z" id="SvgjsPath16835"/>
          </g>
         </g>
        </g>
        <g id="svga-group-eyesfront-right">
         <path stroke-width="none" fill="#ffd0bc" d="m150,110.8l-11.2,0l-7.9,8.4l0,11.9l7.9,8.4l11.2,0l7.9,-8.4l0,-11.8l-7.9,-8.5zm-2.3,19.1l-8.8,-0.4l-5.1,-3.8l5.1,-4.6l9,0.1l7,3.8s-5.8,4.2 -7.2,4.9z" id="SvgjsPath16758"/>
         <path stroke-width="none" fill="#000000" d="m133.3,126.1l1.2,-0.6l4.7,-4.1l8.8,0l7.2,4l1,0.2l-7.9,-5l-9.6,-0.1l-5.4,5.6z" id="SvgjsPath16761"/>
         <path stroke-width="none" fill="#f0b399" d="m134.2,124l4,-4.1l9.8,-0.1l8.1,3.6l-8.1,-3.1l-9.7,0l-4.1,3.7z" id="SvgjsPath16762"/>
        </g>
       </g>
      </g>
      <g id="svga-group-facehighlight-single"/>
      <g id="svga-group-eyebrows-left-move">
       <g transform="matrix(0.982567 -0.185912 0.185912 0.982567 -14.2823 16.193)" id="svga-group-eyebrows-left-rotate">
        <g id="svga-group-eyebrows-left">
         <path stroke-width="none" fill="#2a232b" d="m112.98679,119.92475l-0.6,2.4l-2.4,1.6l-13.1,-7.1l-7.9,-0.2l-5.6,4.1l4.8,-6l8.5,-1.9l10.2,3.5l6.1,3.6z" id="SvgjsPath16909"/>
         <path stroke-width="none" fill="#3a353a" d="m109.38679,117.82475l0.8,0.5l-0.5,3.2l-0.3,-3.7zm-6.2,-2.8l1.5,3.1l-2.1,-3.2l0.6,0.1zm3.7,1.3l0.4,0.2c0.2,1.6 0.5,4.3 0.5,4.3l-1.5,-4.7l0.6,0.2zm-6.3,-2.1l0.8,1.7l-2.2,-2.2l1.4,0.5zm-12.6,2.1c0.1,0 0,0 0,0zm-1.8,1c0.8,-0.4 1.5,-0.8 1.8,-0.9c-0.3,0.2 -1.6,1.3 -2.9,2.2l1.1,-1.3zm6.7,-3.6l1.8,2l-2.3,-1.9l0.5,-0.1zm-4.7,1l1.7,-0.4l2.6,0.9c0.1,0 -2.4,-0.3 -4.3,-0.5z" id="SvgjsPath16910"/>
        </g>
       </g>
      </g>
      <g id="svga-group-eyebrows-right-move">
       <g transform="matrix(0.982567 0.185912 -0.185912 0.982567 17.769 -20.9893)" id="svga-group-eyebrows-right-rotate">
        <g id="svga-group-eyebrows-right">
         <path stroke-width="none" fill="#2a232b" d="m136.14151,110.62917l0.6,2.4l2.4,1.6l13.1,-7.1l7.9,-0.2l5.6,4.1l-4.8,-6l-8.5,-1.9l-10.2,3.5l-6.1,3.6z" id="SvgjsPath16911"/>
         <path stroke-width="none" fill="#3a353a" d="m139.74151,108.52917l-0.8,0.5l0.5,3.2l0.3,-3.7zm6.2,-2.8l-1.5,3.1l2.1,-3.2l-0.6,0.1zm-3.7,1.3l-0.4,0.2c-0.2,1.6 -0.5,4.3 -0.5,4.3l1.5,-4.8l-0.6,0.3zm6.3,-2.1l-0.8,1.7l2.2,-2.2l-1.4,0.5zm12.6,2.1c-0.1,0 0,0 0,0zm1.8,1c-0.8,-0.4 -1.5,-0.8 -1.8,-0.9c0.4,0.2 1.6,1.3 2.9,2.2l-1.1,-1.3zm-6.7,-3.6l-1.8,2l2.3,-1.9l-0.5,-0.1zm4.7,1l-1.7,-0.4l-2.6,0.9c-0.1,0 2.3,-0.3 4.3,-0.5z" id="SvgjsPath16912"/>
        </g>
       </g>
      </g>
      <g id="svga-group-beardwrap">
       <g id="svga-group-beard-single-move">
        <g id="svga-group-beard-single"/>
       </g>
      </g>
      <g id="svga-group-mustache-single-move">
       <g id="svga-group-mustache-single"/>
      </g>
      <g id="svga-group-nose-single-move">
       <g id="svga-group-nose-single">
        <path stroke-width="none" fill="#ffd0bc" d="m133.74,147.21l-4.95,1.23l-1.77,2.5l-2.13,0.32l-2,-0.49l-1.68,-2.33l-4.88,-1.27l-0.08,-3.53l2.5,-2.9l2.09,-1.64l9.17,0l3.9,4.59l-0.17,3.52z" id="SvgjsPath16887"/>
        <path stroke-width="none" fill="#e09879" d="m122.78,123.85l-2.11,5.62l0.92,5.82l-1.39,4.5l2.91,0l2.05,-1.39l-2.51,0.59l-1.19,-0.2l1.06,-4.03l-1.19,-5.62l1.65,-4.36l-0.2,-0.93z" id="SvgjsPath16888"/>
        <path stroke-width="none" fill="#e09879" d="m134.23,143.62l-3.16,-3.57l0.26,0.99l2.17,2.64l-0.26,3.24l-2.96,0.86l0.26,-0.73l1.91,-0.73l0.2,-0.53l-2.63,0.26l-3.1,4.36l-1.91,0.33l-1.81,-0.33l-3.1,-4.36l-2.63,-0.26l0.2,0.53l1.91,0.73l0.26,0.73l-2.96,-0.86l-0.26,-3.24l2.17,-2.64l0.26,-0.99l-3.16,3.57s-0.2,3.9 0.07,3.9c0.26,0 5.2,1.26 5.2,1.26l1.78,2.58l2.08,0.26l2.17,-0.26l1.78,-2.58s4.94,-1.26 5.2,-1.26c0.26,0 0.06,-3.9 0.06,-3.9z" id="SvgjsPath16889"/>
        <path stroke-width="none" fill="#e09879" d="m127.33,124l2.09,5.28l-0.88,3.46l0.14,-4l-1.35,-4.74z" id="SvgjsPath16890"/>
        <path stroke-width="none" fill="#ffd9c9" d="m122.03,140.7l7.08,0l3.17,3.05l-4.64,-0.12l-1.83,2.2l-3.78,-5.13z" id="SvgjsPath16891"/>
       </g>
      </g>
      <g id="svga-group-hair-front">
       <path stroke-width="none" fill="#2a232b" d="m150.9,89.8l-10.7,11.3l-13.6,6l11.3,-9.2l-14.2,9s-9,2.9 -8.4,2.7c0.6,-0.2 17.5,-13.2 17.5,-13.2l-17.7,9.9l-9,2.5l8.2,-6.8l13.1,-13.2l-11.7,9l-8.2,7.8l3.1,-6.4l6,-5.8l-8.8,5.8l-8.8,9.3l-5.1,11.3l1.6,-10.1l6.8,-10.7l-9.2,11.5l-1.2,11.5l-0.4,11.3l-4.5,-14s0.4,12.3 0.8,13.2c0.4,1 3.1,13.8 3.1,13.8l-5.5,-11.9l1.4,10.1l-6.2,-14.6l-1.2,-10.7l-2.2,3.4s-1.8,-19.9 -1.6,-20.5c0.2,-0.6 5.6,-16 5.6,-16l-2.9,0.6l6.7,-8.4l12.4,-10.3l-5.8,1l12.1,-5.7l20.4,-3.5l10.7,1.6l-10.3,-4.9l15.2,4.3l9.7,6.5l4.2,6.1l4.8,1.1l10.9,6l6.9,12.5l-4.5,-3.2l4,9.7l0.5,18.8l-2.4,-5.4l0.4,5.2l0.9,6.8l-3.9,-5.1l-2.5,5.5l-3.1,10.7l0.4,-15l-1,-13.1l-7.4,-8.8l1.9,4.9l-7.8,-9.2l-0.8,-5z" id="SvgjsPath17053"/>
       <path stroke-width="none" fill="#322c33" d="m151.2,82.6l-10.6,11.8l-9.2,4.9l8.3,-8.6l-15.3,8l-6.3,2l7.7,-5.1l12.6,-13.2s-15.9,6.1 -16.9,6.5c-1,0.4 -14.7,9.2 -14.7,9.2l11.4,-10.6l-18.7,10.3l-8.3,10.8l-1.6,7.5l-0.8,-9.4l8.8,-12l16.2,-10.7l-15.9,4.3l-9.4,8.2l9,-13.2l18.1,-6.7l-11.8,-1.2l-5.7,1.2l6.7,-3.1l19.6,-0.6l-6.5,-5.1l-9.6,0.2l12.6,-2.4l9.8,2.2l-3.3,-4.1l11,3.7l7.7,5.9l-3.7,-6.1l-3.7,-3.3l7.7,3.1l6.5,9l-1.7,6.6zm3.7,-5.9l-1.2,7.5l2.9,8l11,13.4l1,11.6l1.8,-12l3.9,4.5l-2.4,-8.8l-7.3,-11l8.2,6.1l-7.7,-11.2l4.5,1.6l-3.7,-5.5l-11,-4.2z" id="SvgjsPath17054"/>
       <path stroke-width="none" fill="#3a353a" d="m149.2,80.4l-8.7,7.9l-9.4,4.8l9.4,-7.4l8.7,-5.3zm-4.2,-3.7l-12.7,-1.5l-20.7,5.5s20.3,-3.7 21.2,-3.7s12.2,-0.3 12.2,-0.3zm-61.3,49.1l-0.2,-19l4.1,-9.2l-6.1,8.7l2.2,19.5z" id="SvgjsPath17055"/>
      </g>
      <g id="svga-group-glasses-single-move">
       <g id="svga-group-glasses-single"/>
      </g>
     </g>
    </g>
   </g>
   <rect opacity="0.5" fill="#ecf0f1" y="215" x="25" height="15" width="200" id="svga-credit-rect"/>
   <text y="212.60825" x="58.40448" fill="#333333" weight="400" anchor="start" size="10px" font-weight="400" text-anchor="start" font-size="10px" font-family="Avenir Next, Roboto, Helvetica, Arial, sans-serif" id="svga-credit-text">
    <tspan x="58.40448" dy="13" id="SvgjsTspan16706">Created on AvatarMaker.com</tspan>
   </text>
  </g>
 </g>
</svg>