<svg xmlns="http://www.w3.org/2000/svg" xmlns:xlink="http://www.w3.org/1999/xlink" viewBox="0 0 109 37" fill="#fff" fill-rule="evenodd" stroke="#000" stroke-linecap="round" stroke-linejoin="round"><use xlink:href="#A" x=".5" y=".5"/><symbol id="A" overflow="visible"><g stroke="none" fill-rule="nonzero"><path d="M0 9.415h5.7v5.63h5.213v-5.63h5.7v17.05h-5.7v-5.7H5.7v5.7H0V9.415zm24.107 5.655H19.08V9.416h15.736v5.654h-5.02v11.397h-5.7V15.07zm13.207-5.655h5.943l3.656 6 3.652-6H56.5v17.05h-5.676v-8.452l-3.92 6.063h-.098L42.9 18.014v8.452h-5.576zm22.03 0h5.7V20.84h8.015v5.636H59.345z" fill="#000"/><path d="M75.77 0h31.637l-2.882 32.288L91.57 35.88l-12.92-3.587z" fill="#e44d26"/><path d="M102.06 30.233l2.463-27.592H91.6v30.494z" fill="#f16529"/><path d="M86.35 14.618l-.362-4.056H91.6v-3.96h-9.93l1.068 11.977H91.6v-3.96zm-3.446 5.942l.555 6.22 8.113 2.252.018-.005v-4.12l-.017.005-4.4-1.2-.282-3.16h-2.143z" fill="#ebebeb"/><path d="M100.686 15.68l.097-1.064h-9.206v3.96h4.877l-.46 5.137-4.417 1.192v4.12l8.12-2.25.06-.67zm-9.1-5.118h9.567l.355-3.97h-9.922v3.95z"/></g></symbol></svg>